<svg width="20" height="24" fill="none" xmlns="http://www.w3.org/2000/svg"><path d="M10 0C4.486 0 0 4.15 0 9.25c0 3.644 1.65 7.33 4.77 10.66 2.332 2.487 4.642 3.896 4.74 3.955a.949.949 0 00.981 0c.096-.059 2.407-1.468 4.738-3.955C18.35 16.58 20 12.894 20 9.25 20 4.15 15.514 0 10 0zm0 22.153c-1.84-1.268-8.207-6.146-8.207-12.904 0-4.185 3.681-7.59 8.207-7.59 4.525 0 8.207 3.405 8.207 7.59 0 6.758-6.368 11.636-8.207 12.904z" fill="#fff"/><path d="M10.004 5.578c-2.188 0-3.969 1.647-3.969 3.671s1.78 3.67 3.97 3.67c2.188 0 3.968-1.646 3.968-3.67s-1.78-3.67-3.969-3.67zm0 5.683c-1.2 0-2.176-.902-2.176-2.012 0-1.11.976-2.013 2.176-2.013 1.2 0 2.176.903 2.176 2.013 0 1.11-.976 2.012-2.176 2.012z" fill="#fff"/></svg>