<svg width="20" height="15" fill="none" xmlns="http://www.w3.org/2000/svg"><path d="M16.477 2.916L10 9.207 3.522 2.915a.583.583 0 00-.878.062.736.736 0 00.055.968l6.89 6.691a.589.589 0 00.411.171.588.588 0 00.411-.171L17.3 3.945a.736.736 0 00.056-.968.583.583 0 00-.878-.061z" fill="#fff"/><path d="M18.133 0H1.867C.837 0 0 .923 0 2.058v10.884C0 14.077.837 15 1.867 15h16.266c1.03 0 1.867-.923 1.867-2.058V2.058C20 .923 19.163 0 18.133 0zm.623 12.942c0 .378-.28.686-.623.686H1.867c-.343 0-.623-.308-.623-.686V2.058c0-.378.28-.686.623-.686h16.266c.343 0 .623.308.623.686v10.884z" fill="#fff"/></svg>