<svg width="42" height="42" fill="none" xmlns="http://www.w3.org/2000/svg"><path d="M21 41c11.046 0 20-8.954 20-20S32.046 1 21 1 1 9.954 1 21s8.954 20 20 20z" fill="#fff" stroke="#fff" stroke-width=".076" stroke-miterlimit="22.926"/><path fill-rule="evenodd" clip-rule="evenodd" d="M14 23.69c0 1.355.149 1.634 1.666 2.407.668.34 1.793.91 2.62.981-.148.57-.586.826-.964 1.215L15.177 30.5c-1.754 1.756-.086 3.5.966 3.5 1.132 0 1.907-1.156 2.536-1.804.608-.626 1.76-1.674 2.178-2.32 1.902 1.313 3.91 5.569 6.045 3.581 1.787-1.662-.47-3.356-1.152-4.06-.608-.626-1.76-1.674-2.178-2.32.685-.015 4.428-1.137 4.428-2.945 0-1.314-.75-2.062-2-2.062-.851 0-3.724 2.721-8.126.866-.695-.293-1.293-.866-2.16-.866-.77 0-1.714.793-1.714 1.62z" fill="#269CEA"/><path fill-rule="evenodd" clip-rule="evenodd" d="M21.003 18.095c-3.496 0-3.088-5.155-.429-5.155h.857c1.798 0 2.854 3.027 1.312 4.445-.392.36-1.029.71-1.74.71zm-6.286-2.946c0 6.109 6.543 9.06 10.75 4.75 4.67-4.782-.534-12.974-6.817-10.415-2.112.86-3.933 3.295-3.933 5.665z" fill="#269CEA"/></svg>