<svg width="16" height="16" fill="none" xmlns="http://www.w3.org/2000/svg"><path d="M13.844 2.096A7.421 7.421 0 008.638 0a.575.575 0 00-.583.567c0 .313.26.567.583.567 1.655 0 3.21.627 4.38 1.764a5.9 5.9 0 011.815 4.259c0 .313.261.567.584.567A.575.575 0 0016 7.157c0-1.912-.766-3.71-2.156-5.06z" fill="#fff"/><path d="M11.444 7.157c0 .313.261.567.584.567a.575.575 0 00.583-.567c0-2.13-1.783-3.862-3.973-3.862a.575.575 0 00-.583.567c0 .313.26.567.583.567 1.547 0 2.806 1.224 2.806 2.728zm-1.29 2.891c-.89-.044-1.342.598-1.56.907a.557.557 0 00.153.789c.266.176.629.11.81-.148.257-.365.374-.422.531-.415.505.057 2.494 1.474 2.693 1.917a.57.57 0 01-.006.414c-.209.602-.554 1.025-1 1.224-.422.188-.94.171-1.499-.05-2.082-.825-3.902-1.976-5.408-3.423l-.001-.001C3.382 9.799 2.2 8.032 1.352 6.012c-.227-.543-.244-1.048-.05-1.459.204-.433.639-.768 1.258-.971a.619.619 0 01.425-.006c.457.194 1.914 2.127 1.973 2.612.008.16-.051.272-.426.521a.557.557 0 00-.153.789.594.594 0 00.81.148c.319-.211.98-.65.934-1.518-.05-.905-1.864-3.305-2.73-3.614a1.811 1.811 0 00-1.205-.007c-.932.305-1.605.85-1.947 1.574-.331.702-.32 1.518.03 2.358.908 2.163 2.177 4.056 3.772 5.626a.51.51 0 00.012.012c1.614 1.548 3.559 2.78 5.781 3.66.445.176.884.264 1.303.264.395 0 .772-.078 1.123-.234.745-.332 1.305-.987 1.62-1.894a1.67 1.67 0 00-.007-1.169c-.32-.844-2.787-2.606-3.72-2.656z" fill="#fff"/></svg>