<svg width="42" height="42" fill="none" xmlns="http://www.w3.org/2000/svg"><path d="M21 41c11.046 0 20-8.954 20-20S32.046 1 21 1 1 9.954 1 21s8.954 20 20 20z" fill="#fff" stroke="#fff" stroke-width=".076" stroke-miterlimit="22.926"/><path fill-rule="evenodd" clip-rule="evenodd" d="M33 13.603c-.665.056-1.443.579-2.515.603.79-.7 1.644-1.494 1.923-2.714-.584.138-1.193.533-1.902.775-1.435.49-1.197.474-1.794-.012-3.32-2.7-7.598-.698-8.401 2.738-.297 1.268-.127 1.385-.033 2.532-1.9-.451-3.73-.332-6.188-1.835-3.545-2.169-3.677-3.16-4.463-3.746-.975 1.879-.959 3.906.263 5.765.183.277.28.455.51.686.373.372.425.246.706.638l-2.219-.604c0 2.15 1.338 4.182 3.168 4.915l.732.31c.02.01.065.033.095.054h-2.22c.513.988.79 1.824 1.687 2.504.867.658 1.589 1.116 3.047 1.116-.472.72-2.06 1.386-3.048 1.718-1.541.52-2.374.544-4.348.544.73.648 2.482 1.399 3.382 1.68 3.046.955 5.64.957 8.72.1 1.302-.362 2.554-.927 3.58-1.627 4.5-3.068 6.951-7.538 6.951-13.576.695-.475 2.144-1.713 2.367-2.564z" fill="#269CEA"/><path fill-rule="evenodd" clip-rule="evenodd" d="M20.242 13.603h.148l-.123-.176-.025.176z" fill="#fff"/></svg>