<svg width="42" height="35" viewBox="0 0 42 35" fill="none" xmlns="http://www.w3.org/2000/svg">
<path d="M12.8624 0.000101402L0 33.9846L0.766617 34L11.3328 6.16036L14.8556 15.4507H9.23147C9.12989 15.7139 9.05227 15.9126 8.97403 16.1201H15.1285L21.8908 34H26.9157L13.9746 0H12.8624V0.000101402Z" fill="white"/>
<path d="M29.2484 15.9088H24.9035L24.9015 0.774454C25.596 0.767877 25.8227 0.774454 26.391 0.774454H28.1166C28.9349 0.774454 29.7596 0.831241 30.5944 0.992937C31.4282 1.15536 32.1837 1.49546 32.8612 2.01322C33.5378 2.53182 34.0892 3.30085 34.5141 4.32093C34.9393 5.34142 35.1519 6.69398 35.1519 8.37765C35.1519 9.8682 35.01 11.0986 34.7267 12.0703C34.4433 13.0419 34.0417 13.8121 33.5222 14.3783C33.0026 14.9452 32.3808 15.3425 31.6566 15.5686C30.9322 15.7956 30.1291 15.9088 29.2482 15.9088H29.2484ZM38.6939 32.1849C39.7639 31.31 40.5666 30.2656 41.1026 29.0509C41.6376 27.8362 41.9054 26.5001 41.9054 25.0429C41.9054 23.6504 41.6059 22.4192 41.0081 21.3502C40.4095 20.2813 39.6304 19.3825 38.6704 18.6538C37.7095 17.9251 36.6398 17.3587 35.4587 16.9531C34.2781 16.5487 33.121 16.2973 31.9876 16.2003V16.1031C33.0893 15.9742 34.1437 15.6984 35.1521 15.277C36.1593 14.8564 37.0484 14.3053 37.82 13.6252C38.5914 12.9447 39.2056 12.1516 39.6622 11.2447C40.1183 10.3378 40.3469 9.3496 40.3469 8.28067C40.3469 7.5033 40.1889 6.63729 39.8749 5.68141C39.5597 4.72647 38.9774 3.83521 38.1274 3.00929C37.2772 2.18348 36.1119 1.48711 34.6323 0.920283C33.1521 0.353875 31.2334 0 28.9354 0C28.4942 0 20.1785 0 20.1785 0L20.1699 6.35284L24.9064 19.1745L24.9036 16.5887H30.0985C32.2075 16.5887 33.7974 17.3343 34.8686 18.8237C35.9386 20.314 36.4745 22.3545 36.4745 24.9454C36.4745 26.7599 36.3164 28.2659 36.0019 29.4641C35.307 31.966 33.4334 34.5188 30.7774 35C30.7774 35 32.4655 34.9014 34.6322 34.2496C36.2715 33.7565 37.6232 33.0593 38.694 32.185L38.6939 32.1849Z" fill="white"/>
</svg>
