<svg width="39" height="39" fill="none" xmlns="http://www.w3.org/2000/svg"><path d="M31.402 19.247a1.427 1.427 0 00-2.023 0L19.25 29.376a7.164 7.164 0 01-10.134 0 7.164 7.164 0 010-10.134L21.273 7.085a4.298 4.298 0 116.079 6.079L17.218 23.297a1.432 1.432 0 01-2.023-2.022l8.106-8.107a1.432 1.432 0 00-2.023-2.023l-8.106 8.107a4.293 4.293 0 000 6.078 4.293 4.293 0 006.078 0L29.38 15.2a7.178 7.178 0 00-.005-10.138 7.163 7.163 0 00-10.13.005L7.09 17.224c-3.918 3.918-3.913 10.267 0 14.18 3.913 3.913 10.266 3.913 14.18 0L31.401 21.27c.56-.56.56-1.463 0-2.023z" fill="#0094F7"/></svg>