<svg width="20" height="20" fill="none" xmlns="http://www.w3.org/2000/svg"><circle cx="10" cy="10" r="10" fill="#2F89CE"/><path d="M4.709 10.187l2.299.857.896 2.884c.039.194.273.233.428.117l1.286-1.053c.117-.116.312-.116.468 0l2.299 1.676c.156.117.39.039.429-.156l1.714-8.183c.04-.195-.156-.39-.35-.312L4.707 9.68c-.233.078-.233.429 0 .507zm3.078.429l4.52-2.767c.078-.04.156.078.078.117l-3.702 3.468c-.117.117-.234.273-.234.467l-.117.936c0 .117-.194.155-.233 0l-.468-1.715c-.117-.195-.039-.429.156-.506z" fill="#fff"/></svg>