<svg width="20" height="20" fill="none" xmlns="http://www.w3.org/2000/svg"><circle cx="10" cy="10" r="10" fill="#7C509A"/><path d="M13.125 5.273a15.491 15.491 0 00-5.79 0c-.843.182-1.906 1.201-2.09 2.002a11.435 11.435 0 000 4.73c.22.802 1.283 1.82 2.09 2.003.036 0 .073.036.073.072v2.293c0 .11.146.182.22.073l1.1-1.128s.879-.91 1.025-1.056c0 0 .037-.036.074-.036 1.1.036 2.235-.073 3.335-.255.843-.182 1.905-1.2 2.089-2.002.33-1.564.33-3.166 0-4.73-.22-.765-1.283-1.784-2.126-1.966zm.037 6.842c-.184.364-.404.655-.77.837l-.33.11a4.632 4.632 0 01-.366-.11c-1.173-.473-2.273-1.128-3.152-2.074a8.753 8.753 0 01-1.21-1.82c-.146-.328-.293-.619-.403-.946-.11-.291.074-.583.257-.801.183-.218.403-.364.66-.473.183-.11.366-.036.513.11.293.363.586.727.806 1.127.146.255.11.546-.147.728a.651.651 0 00-.183.146c-.037.036-.11.073-.147.145a.352.352 0 00-.036.328c.293.837.843 1.492 1.686 1.856a.87.87 0 00.44.11c.256-.037.366-.328.55-.474.182-.146.402-.146.622-.036.184.109.367.254.587.4.183.146.366.255.55.4.11.073.146.255.073.437zm-1.54-2.73c-.073 0-.036 0 0 0-.146 0-.183-.072-.22-.181 0-.073 0-.182-.036-.255a.691.691 0 00-.257-.4l-.22-.11c-.11-.036-.183-.036-.293-.036-.11-.037-.146-.11-.146-.219 0-.072.11-.145.183-.145.586.036 1.026.364 1.1 1.055v.146c0 .073-.037.146-.11.146zm-.366-1.6a2.76 2.76 0 00-.587-.183c-.073 0-.183-.036-.256-.036-.11 0-.183-.073-.147-.182 0-.11.074-.182.184-.146.366.037.696.11 1.026.255.66.328 1.026.873 1.136 1.601v.474c-.037.145-.293.181-.33 0 0-.037-.037-.11-.037-.146 0-.328-.073-.655-.22-.946a1.966 1.966 0 00-.77-.692zm1.979 2.183c-.11 0-.183-.11-.183-.219 0-.218-.037-.436-.074-.655-.146-1.164-1.1-2.11-2.235-2.292-.183-.037-.367-.037-.513-.073-.11 0-.257 0-.293-.146-.037-.109.073-.218.183-.218h.073c1.503.036.073 0 0 0 1.54.036 2.822 1.055 3.079 2.584.036.255.073.51.073.8.073.11 0 .219-.11.219z" fill="#fff"/></svg>