<svg width="23" height="24" viewBox="0 0 23 24" fill="none" xmlns="http://www.w3.org/2000/svg">
<path fill-rule="evenodd" clip-rule="evenodd" d="M2.10499 13.576C2.10499 1.53266 2.25804 2.98454 16.2357 2.98454C17.6985 2.98454 19.2115 3.48597 19.9714 4.64759C21.3364 6.73488 20.8956 12.3984 20.8956 15.5152C20.8956 19.7406 19.6106 21.4821 15.3339 21.4821C4.16351 21.4821 2.10499 22.6917 2.10499 13.576V13.576ZM0.000316517 8.65304V15.8136C0.000316517 25.293 7.78503 23.249 11.1928 23.6616C11.8764 23.7445 14.6325 23.5659 15.7867 23.5725C20.1402 23.5976 23 21.2241 23 16.4104V7.75844C23 -0.471786 14.8412 0.747263 8.86931 0.747263C3.49979 0.747263 0 2.08147 0 8.65367L0.000316517 8.65304Z" fill="white"/>
<path fill-rule="evenodd" clip-rule="evenodd" d="M11.1246 8.50114H11.8762C16.3363 8.50114 16.5459 15.9598 11.5755 15.9598C8.25563 15.9598 6.64962 12.3227 8.62464 9.74968C9.06164 9.18048 10.1712 8.50114 11.1243 8.50114H11.1246ZM5.5625 12.0811C5.5625 15.3444 8.28567 18.048 11.1246 18.048C12.9285 18.048 14.336 17.7781 15.7513 16.374C17.9391 14.2026 18.0808 10.4014 15.75 8.08789C15.1609 7.50331 14.8773 7.30123 14.0862 6.90461C10.0511 4.88322 5.56282 8.12366 5.56282 12.0808L5.5625 12.0811Z" fill="white"/>
<path fill-rule="evenodd" clip-rule="evenodd" d="M16.2344 6.11665C16.2344 7.93922 19.0903 7.93922 19.0903 6.11665C19.0903 4.37035 16.2344 4.25079 16.2344 6.11665V6.11665Z" fill="white"/>
</svg>
