<svg width="14" height="26" viewBox="0 0 14 26" fill="none" xmlns="http://www.w3.org/2000/svg">
<path fill-rule="evenodd" clip-rule="evenodd" d="M0 15.3744C0 16.7285 0.149043 17.0079 1.66594 17.7809C2.33393 18.1213 3.45867 18.691 4.28563 18.7617C4.13839 19.3311 3.69968 19.5879 3.32166 19.9767L1.17672 22.1839C-0.576958 23.9398 1.09139 25.6836 2.14312 25.6836C3.27538 25.6836 4.05005 24.5278 4.67868 23.8797C5.28658 23.253 6.43807 22.2053 6.85726 21.56C8.75848 22.8726 10.7661 27.1282 12.9023 25.1409C14.6887 23.4786 12.4323 21.7843 11.7502 21.0811C11.1423 20.4544 9.99081 19.4067 9.57162 18.7614C10.2567 18.7456 14 17.6238 14 15.8159C14 14.5021 13.2503 13.7539 11.9999 13.7539C11.1489 13.7539 8.27649 16.4751 3.87426 14.6201C3.17921 14.327 2.58154 13.7539 1.71431 13.7539C0.944446 13.7539 0 14.547 0 15.3738V15.3744Z" fill="white"/>
<path fill-rule="evenodd" clip-rule="evenodd" d="M7.00157 9.77825C3.50561 9.77825 3.91399 4.62359 6.57307 4.62359H7.43008C9.22825 4.62359 10.2842 7.65027 8.74174 9.06851C8.3499 9.42911 7.71314 9.77825 7.00157 9.77825V9.77825ZM0.71582 6.83273C0.71582 12.9416 7.2591 15.893 11.4666 11.5831C16.1363 6.8002 10.9321 -1.39105 4.6493 1.16753C2.53742 2.02783 0.71582 4.4625 0.71582 6.83273V6.83273Z" fill="white"/>
</svg>
