<svg width="25" height="21" viewBox="0 0 25 21" fill="none" xmlns="http://www.w3.org/2000/svg">
<path fill-rule="evenodd" clip-rule="evenodd" d="M25 2.60297C24.335 2.65944 23.5568 3.18197 22.4852 3.2064C23.2746 2.50684 24.1294 1.71177 24.4085 0.491573C23.8238 0.630218 23.2155 1.02521 22.506 1.26728C21.0706 1.75714 21.309 1.74064 20.7116 1.25491C17.3915 -1.44533 13.1139 0.556612 12.3105 3.99354C12.0143 5.26069 12.1845 5.3784 12.2782 6.52467C10.3782 6.07352 8.54793 6.19281 6.08975 4.68961C2.54468 2.52143 2.41306 1.53093 1.62707 0.943991C0.651886 2.82283 0.668376 4.85047 1.89031 6.70868C2.07265 6.98629 2.16942 7.16428 2.40061 7.39493C2.77276 7.76676 2.82504 7.64144 3.10633 8.03295L0.887435 7.42951C0.887435 9.57929 2.22451 11.6111 4.05507 12.3442L4.78723 12.6536C4.80777 12.6644 4.85195 12.6872 4.88151 12.7082H2.66262C3.17511 13.6958 3.45142 14.5315 4.34881 15.2123C5.21571 15.8703 5.93791 16.3281 7.39633 16.3281C6.92398 17.0471 5.33674 17.7136 4.34787 18.0464C2.80668 18.5652 1.97432 18.5905 0 18.5905C0.730608 19.2381 2.48214 19.9887 3.38202 20.2705C6.42829 21.2248 9.02183 21.2267 12.1011 20.3707C13.4042 20.0084 14.656 19.443 15.6823 18.7435C20.1829 15.6752 22.6333 11.205 22.6333 5.16678C23.3281 4.69247 24.7772 3.45419 25 2.60265V2.60297Z" fill="white"/>
</svg>
