<svg width="30" height="17" viewBox="0 0 30 17" fill="none" xmlns="http://www.w3.org/2000/svg">
<path fill-rule="evenodd" clip-rule="evenodd" d="M9.90583 1.20315C10.604 1.53399 11.7333 1.36984 11.7333 3.60883C11.7333 5.28483 12.0371 7.56589 10.9718 8.27026C9.50022 7.93183 7.44526 4.02791 6.79487 2.46925C5.87728 0.269476 5.84748 0.751813 1.22364 0.751813C-0.893163 0.751813 0.197439 2.11311 1.07338 4.05795C2.50103 7.22746 5.89682 12.7884 8.75116 14.8231C11.6696 16.9036 13.2279 16.841 16.4552 16.841C18.2718 16.841 17.1142 13.9735 18.3589 13.142C19.249 12.5477 20.3723 14.1212 20.683 14.4714C21.9098 15.8548 23.2221 17.2098 25.2633 16.9729C27.1145 16.7581 33.1961 17.8933 27.8418 12.667C26.582 11.4372 25.1371 10.5804 25.1371 9.47309C25.1371 8.14722 32.7239 0.752129 28.9449 0.752129C20.8064 0.752129 24.0535 0.156878 21.2434 4.72722C20.5683 5.82505 19.405 7.97706 18.1305 8.27026C17.3225 7.0788 17.5215 6.96526 17.5215 4.96222C17.5215 0.406745 18.8014 0 12.7996 0C11.527 0 10.4495 0.188191 9.90583 1.20315Z" fill="white"/>
</svg>
