<svg width="24" height="124" viewBox="0 0 24 124" fill="none" xmlns="http://www.w3.org/2000/svg">
<path d="M13.5 2C13.5 1.17157 12.8284 0.5 12 0.5C11.1716 0.5 10.5 1.17157 10.5 2L13.5 2ZM10.9393 123.061C11.5251 123.646 12.4749 123.646 13.0607 123.061L22.6066 113.515C23.1924 112.929 23.1924 111.979 22.6066 111.393C22.0208 110.808 21.0711 110.808 20.4853 111.393L12 119.879L3.51472 111.393C2.92894 110.808 1.97919 110.808 1.3934 111.393C0.807616 111.979 0.807616 112.929 1.3934 113.515L10.9393 123.061ZM10.5 2L10.5 122L13.5 122L13.5 2L10.5 2Z" fill="#0094F7"/>
</svg>
