<svg width="35" height="35" viewBox="0 0 35 35" fill="none" xmlns="http://www.w3.org/2000/svg">
<path fill-rule="evenodd" clip-rule="evenodd" d="M27.9491 14.9876H15V8.61745H31.1341C32.8932 8.61745 34.3192 10.0435 34.3192 11.8025V31.8154C34.3192 33.5745 32.8932 35.0005 31.1341 35.0005H3.18508C1.42601 35.0005 0 33.5745 0 31.8154C0 30.0564 1.42601 28.6304 3.18508 28.6304H27.9491V14.9876Z" fill="white"/>
<path d="M12.185 0.410511L0.595293 10.222C0.408582 10.3802 0.258708 10.5763 0.155955 10.7971C0.0532012 11.0179 0 11.258 0 11.5009C0 11.7439 0.0532012 11.984 0.155955 12.2048C0.258708 12.4255 0.408582 12.6217 0.595293 12.7798L12.185 22.5913C13.2912 23.5277 15 22.7514 15 21.3124V1.68661C15 0.247665 13.2912 -0.528664 12.185 0.410511Z" fill="white"/>
</svg>
