<svg width="21" height="21" viewBox="0 0 21 21" fill="none" xmlns="http://www.w3.org/2000/svg">
<path d="M19.7537 10.4469L11.2047 1.36176C10.8447 0.97837 10.1532 0.97837 9.79315 1.36176L1.24411 10.4469C1.12105 10.5774 1.04028 10.7392 1.01162 10.9128C0.982947 11.0863 1.00762 11.2641 1.08263 11.4245C1.23461 11.7525 1.57467 11.9632 1.94988 11.9632H3.84967V18.3229C3.84967 18.5638 3.94974 18.7949 4.12788 18.9653C4.30602 19.1357 4.54763 19.2314 4.79956 19.2314H7.64924C7.90117 19.2314 8.14278 19.1357 8.32092 18.9653C8.49906 18.7949 8.59914 18.5638 8.59914 18.3229V14.6888H12.3987V18.3229C12.3987 18.5638 12.4988 18.7949 12.6769 18.9653C12.8551 19.1357 13.0967 19.2314 13.3486 19.2314H16.1983C16.4502 19.2314 16.6918 19.1357 16.87 18.9653C17.0481 18.7949 17.1482 18.5638 17.1482 18.3229V11.9632H19.048C19.2319 11.964 19.4121 11.9135 19.5666 11.818C19.7211 11.7225 19.8432 11.5861 19.9181 11.4253C19.9929 11.2646 20.0172 11.0865 19.988 10.9128C19.9588 10.739 19.8774 10.5772 19.7537 10.4469V10.4469Z" stroke="#0094F7" stroke-width="2" stroke-linecap="round" stroke-linejoin="round"/>
</svg>
