<svg width="25" height="25" viewBox="0 0 25 25" fill="none" xmlns="http://www.w3.org/2000/svg">
<path d="M17.3091 13.9698L22.7102 16.4249C24.1047 17.0587 25 18.4492 25 19.981V21.0938C25 23.2511 23.2511 25 21.0938 25H3.90625C1.74889 25 0 23.2511 0 21.0938V19.981C0 18.4492 0.895323 17.0587 2.28983 16.4249L7.69087 13.9698C5.86264 12.5399 4.6875 10.3134 4.6875 7.8125C4.6875 3.49778 8.18528 0 12.5 0C16.8147 0 20.3125 3.49778 20.3125 7.8125C20.3125 10.3134 19.1374 12.5399 17.3091 13.9698ZM9.31448 14.9482L2.9364 17.8473C2.09969 18.2276 1.5625 19.0619 1.5625 19.981V21.0938C1.5625 22.3882 2.61183 23.4375 3.90625 23.4375H21.0938C22.3882 23.4375 23.4375 22.3882 23.4375 21.0938V19.981C23.4375 19.0619 22.9003 18.2276 22.0636 17.8473L15.6855 14.9482C14.7127 15.3831 13.6346 15.625 12.5 15.625C11.3654 15.625 10.2873 15.3831 9.31448 14.9482ZM12.5 14.0625C15.9518 14.0625 18.75 11.2643 18.75 7.8125C18.75 4.36072 15.9518 1.5625 12.5 1.5625C9.04822 1.5625 6.25 4.36072 6.25 7.8125C6.25 11.2643 9.04822 14.0625 12.5 14.0625Z" fill="white"/>
</svg>
