<svg width="13" height="13" viewBox="0 0 13 13" fill="none" xmlns="http://www.w3.org/2000/svg">
<path d="M10.3672 0.244093L12.7524 2.63403C12.8305 2.71165 12.8926 2.80394 12.9351 2.90562C12.9776 3.00731 12.9996 3.11639 13 3.22663C13.0004 3.33687 12.979 3.4461 12.9372 3.54807C12.8954 3.65004 12.834 3.74275 12.7564 3.8209L11.4304 5.14955L7.86087 1.57274L9.18682 0.244093C9.34363 0.0877603 9.55583 0 9.77704 0C9.99824 0 10.2104 0.0877603 10.3672 0.244093Z" fill="#0094F7"/>
<path d="M0.0192211 11.9829L0.787306 8.66132L7.16645 2.26114L10.7401 5.8339L4.33667 12.226L1.00156 12.9956C0.943765 13.0015 0.885528 13.0015 0.827731 12.9956C0.703693 12.9949 0.581389 12.9664 0.469754 12.9122C0.358119 12.858 0.259972 12.7795 0.182485 12.6825C0.104997 12.5854 0.0501262 12.4722 0.0218796 12.3512C-0.00636692 12.2302 -0.00727523 12.1044 0.0192211 11.9829Z" fill="#0094F7"/>
</svg>
