<svg width="25" height="25" viewBox="0 0 25 25" fill="none" xmlns="http://www.w3.org/2000/svg">
<path fill-rule="evenodd" clip-rule="evenodd" d="M12.5 25C19.4036 25 25 19.4036 25 12.5C25 5.59644 19.4036 0 12.5 0C5.59644 0 0 5.59644 0 12.5C0 19.4036 5.59644 25 12.5 25ZM16.3672 6.24409L18.7524 8.63403C18.8305 8.71165 18.8926 8.80394 18.9351 8.90562C18.9776 9.00731 18.9996 9.11639 19 9.22663C19.0004 9.33687 18.979 9.4461 18.9372 9.54807C18.8954 9.65004 18.834 9.74275 18.7564 9.8209L17.4304 11.1495L13.8609 7.57274L15.1868 6.24409C15.3436 6.08776 15.5558 6 15.777 6C15.9982 6 16.2104 6.08776 16.3672 6.24409ZM6.01922 17.9829L6.78731 14.6613L13.1665 8.26114L16.7401 11.8339L10.3367 18.226L7.00156 18.9956C6.94376 19.0015 6.88553 19.0015 6.82773 18.9956C6.70369 18.9949 6.58139 18.9664 6.46975 18.9122C6.35812 18.858 6.25997 18.7795 6.18249 18.6825C6.105 18.5854 6.05013 18.4722 6.02188 18.3512C5.99363 18.2302 5.99272 18.1043 6.01922 17.9829Z" fill="#808080"/>
</svg>
