<svg width="19" height="19" viewBox="0 0 19 19" fill="none" xmlns="http://www.w3.org/2000/svg">
<path d="M13.1538 8.03846C13.1538 6.63021 12.6533 5.42558 11.6523 4.42458C10.6513 3.42358 9.44671 2.92308 8.03846 2.92308C6.63021 2.92308 5.42558 3.42358 4.42458 4.42458C3.42358 5.42558 2.92308 6.63021 2.92308 8.03846C2.92308 9.44672 3.42358 10.6513 4.42458 11.6523C5.42558 12.6533 6.63021 13.1538 8.03846 13.1538C9.44671 13.1538 10.6513 12.6533 11.6523 11.6523C12.6533 10.6513 13.1538 9.44672 13.1538 8.03846ZM19 17.5385C19 17.9343 18.8554 18.2768 18.5661 18.5661C18.2768 18.8554 17.9343 19 17.5385 19C17.1274 19 16.7849 18.8554 16.5108 18.5661L12.5944 14.6611C11.2318 15.605 9.71314 16.0769 8.03846 16.0769C6.94992 16.0769 5.90895 15.8657 4.91556 15.4432C3.92218 15.0207 3.06581 14.4498 2.34645 13.7305C1.6271 13.0111 1.05619 12.1547 0.633714 11.1614C0.211238 10.168 0 9.127 0 8.03846C0 6.94992 0.211238 5.90895 0.633714 4.91557C1.05619 3.92218 1.6271 3.06581 2.34645 2.34645C3.06581 1.6271 3.92218 1.05619 4.91556 0.633714C5.90895 0.211238 6.94992 0 8.03846 0C9.127 0 10.168 0.211238 11.1614 0.633714C12.1547 1.05619 13.0111 1.6271 13.7305 2.34645C14.4498 3.06581 15.0207 3.92218 15.4432 4.91557C15.8657 5.90895 16.0769 6.94992 16.0769 8.03846C16.0769 9.71314 15.605 11.2318 14.6611 12.5944L18.5775 16.5108C18.8592 16.7925 19 17.135 19 17.5385Z" fill="#0094F7"/>
</svg>
