<svg width="39" height="39" viewBox="0 0 39 39" fill="none" xmlns="http://www.w3.org/2000/svg">
<path d="M31.4024 19.2468C30.8421 18.6865 29.9398 18.6865 29.3795 19.2468L19.2503 29.376C16.4533 32.173 11.9182 32.1778 9.11639 29.376C6.31461 26.5742 6.31936 22.0391 9.11639 19.2421L21.2733 7.08519C22.9496 5.40886 25.6707 5.40412 27.3517 7.08519C29.0328 8.76625 29.028 11.4873 27.3517 13.1636L17.2178 23.2975C16.6575 23.8579 15.7504 23.8531 15.1948 23.2975C14.6392 22.7419 14.6345 21.8349 15.1948 21.2746L23.301 13.1684C23.8614 12.608 23.8566 11.701 23.301 11.1454C22.7407 10.585 21.8384 10.585 21.278 11.1454L13.1719 19.2516C11.4908 20.9326 11.4908 23.6489 13.1719 25.33C14.8529 27.0111 17.5692 27.0111 19.2503 25.33L29.3795 15.2009C32.1717 12.3991 32.1717 7.85924 29.3747 5.0622C26.5777 2.26517 22.0426 2.26992 19.2455 5.06695L7.08866 17.2238C3.17091 21.1416 3.17566 27.4907 7.08866 31.4037C11.0017 35.3167 17.3555 35.3167 21.2685 31.4037L31.4024 21.2698C31.9628 20.7094 31.9628 19.8072 31.4024 19.2468Z" fill="#0094F7"/>
</svg>
