<svg width="8" height="6" viewBox="0 0 8 6" fill="none" xmlns="http://www.w3.org/2000/svg">
<path d="M1.7132 0.74826C1.32607 0.35437 0.692932 0.348888 0.299042 0.736017C-0.0948491 1.12315 -0.100331 1.75629 0.286798 2.15018L1.7132 0.74826ZM3.9485 4.44922L3.2353 5.15018L3.9485 5.87584L4.6617 5.15018L3.9485 4.44922ZM7.6102 2.15018C7.99733 1.75629 7.99184 1.12315 7.59795 0.736017C7.20406 0.348888 6.57092 0.35437 6.18379 0.74826L7.6102 2.15018ZM0.286798 2.15018L3.2353 5.15018L4.6617 3.74826L1.7132 0.74826L0.286798 2.15018ZM4.6617 5.15018L7.6102 2.15018L6.18379 0.74826L3.2353 3.74826L4.6617 5.15018Z" fill="#0094F7"/>
</svg>
