<svg width="6" height="9" viewBox="0 0 6 9" fill="none" xmlns="http://www.w3.org/2000/svg">
<path d="M0.74826 6.73602C0.35437 7.12315 0.348888 7.75629 0.736017 8.15018C1.12315 8.54407 1.75629 8.54955 2.15018 8.16242L0.74826 6.73602ZM4.44922 4.50072L5.15018 5.21392L5.87584 4.50072L5.15018 3.78752L4.44922 4.50072ZM2.15018 0.839021C1.75629 0.451892 1.12314 0.457374 0.736016 0.851265C0.348888 1.24516 0.354369 1.8783 0.74826 2.26543L2.15018 0.839021ZM2.15018 8.16242L5.15018 5.21392L3.74826 3.78752L0.74826 6.73602L2.15018 8.16242ZM5.15018 3.78752L2.15018 0.839021L0.74826 2.26543L3.74826 5.21392L5.15018 3.78752Z" fill="#808080"/>
</svg>
