<svg width="21" height="19" viewBox="0 0 21 19" fill="none" xmlns="http://www.w3.org/2000/svg">
<path d="M6.95081 6.11108C6.95081 6.11108 3.18207 6.52851 0.667983 6.80759C0.441381 6.83502 0.241018 6.98648 0.165882 7.21666C0.0907456 7.44684 0.165882 7.68656 0.332851 7.83803C2.20052 9.54231 5.0068 12.0946 5.0068 12.0946C5.00442 12.0946 4.23636 15.8072 3.72591 18.2844C3.68298 18.5086 3.76407 18.7459 3.95967 18.8878C4.15407 19.0298 4.40452 19.0321 4.60131 18.9212C6.80053 17.6713 10.0946 15.7917 10.0946 15.7917C10.0946 15.7917 13.3899 17.6713 15.5855 18.9224C15.7859 19.0321 16.0363 19.0298 16.2307 18.8878C16.4263 18.7459 16.5074 18.5086 16.4633 18.2855C15.9528 15.8072 15.186 12.0946 15.186 12.0946C15.186 12.0946 17.9923 9.54231 19.8599 7.8416C20.0269 7.68537 20.1008 7.44565 20.0269 7.21666C19.953 6.98767 19.7526 6.83621 19.526 6.80997C17.0119 6.52851 13.242 6.11108 13.242 6.11108C13.242 6.11108 11.6796 2.65482 10.6384 0.350636C10.5407 0.14431 10.3355 0 10.0946 0C9.85369 0 9.64736 0.145502 9.55434 0.350636C8.51197 2.65482 6.95081 6.11108 6.95081 6.11108Z" fill="#777777"/>
<path d="M6.95081 6.11108C6.95081 6.11108 3.18207 6.52851 0.667983 6.80759C0.441381 6.83502 0.241018 6.98648 0.165882 7.21666C0.0907456 7.44684 0.165882 7.68656 0.332851 7.83803C2.20052 9.54231 5.0068 12.0946 5.0068 12.0946C5.00442 12.0946 4.23636 15.8072 3.72591 18.2844C3.68298 18.5086 3.76407 18.7459 3.95967 18.8878C4.15407 19.0298 4.40452 19.0321 4.60131 18.9212C6.80053 17.6713 10.0946 15.7917 10.0946 15.7917C10.0946 15.7917 13.3899 17.6713 15.5855 18.9224C15.7859 19.0321 16.0363 19.0298 16.2307 18.8878C16.4263 18.7459 16.5074 18.5086 16.4633 18.2855C15.9528 15.8072 15.186 12.0946 15.186 12.0946C15.186 12.0946 17.9923 9.54231 19.8599 7.8416C20.0269 7.68537 20.1008 7.44565 20.0269 7.21666C19.953 6.98767 19.7526 6.83621 19.526 6.80997C17.0119 6.52851 13.242 6.11108 13.242 6.11108C13.242 6.11108 11.6796 2.65482 10.6384 0.350636C10.5407 0.14431 10.3355 0 10.0946 0C9.85369 0 9.64736 0.145502 9.55434 0.350636C8.51197 2.65482 6.95081 6.11108 6.95081 6.11108Z" fill="#FF543D"/>
</svg>
