<svg width="21" height="19" viewBox="0 0 21 19" fill="none" xmlns="http://www.w3.org/2000/svg">
<path opacity="0.7" d="M6.99768 6.11108C6.99768 6.11108 3.22894 6.52851 0.714858 6.80759C0.488256 6.83502 0.287893 6.98648 0.212757 7.21666C0.137621 7.44684 0.212757 7.68656 0.379726 7.83803C2.2474 9.54231 5.05368 12.0946 5.05368 12.0946C5.05129 12.0946 4.28324 15.8072 3.77279 18.2844C3.72985 18.5086 3.81095 18.7459 4.00654 18.8878C4.20094 19.0298 4.4514 19.0321 4.64818 18.9212C6.84741 17.6713 10.1415 15.7917 10.1415 15.7917C10.1415 15.7917 13.4367 17.6713 15.6324 18.9224C15.8328 19.0321 16.0832 19.0298 16.2776 18.8878C16.4732 18.7459 16.5543 18.5086 16.5102 18.2855C15.9997 15.8072 15.2329 12.0946 15.2329 12.0946C15.2329 12.0946 18.0391 9.54231 19.9068 7.8416C20.0738 7.68537 20.1477 7.44565 20.0738 7.21666C19.9998 6.98767 19.7995 6.83621 19.5729 6.80997C17.0588 6.52851 13.2889 6.11108 13.2889 6.11108C13.2889 6.11108 11.7265 2.65482 10.6853 0.350636C10.5875 0.14431 10.3824 0 10.1415 0C9.90057 0 9.69424 0.145502 9.60121 0.350636C8.55885 2.65482 6.99768 6.11108 6.99768 6.11108Z" fill="#CACACA"/>
</svg>
