<svg width="20" height="20" viewBox="0 0 20 20" fill="none" xmlns="http://www.w3.org/2000/svg">
<circle cx="10" cy="10" r="10" fill="#2F89CE"/>
<path d="M4.70855 10.1869L7.0076 11.0441L7.90383 13.9277C7.9428 14.1225 8.1766 14.1615 8.33247 14.0446L9.61837 12.9925C9.73527 12.8756 9.93011 12.8756 10.086 12.9925L12.385 14.668C12.5409 14.7849 12.7747 14.707 12.8137 14.5122L14.5282 6.32914C14.5672 6.13431 14.3723 5.93947 14.1775 6.01741L4.70855 9.68029C4.47475 9.75822 4.47475 10.1089 4.70855 10.1869ZM7.78694 10.6155L12.3071 7.84885C12.385 7.80988 12.4629 7.92678 12.385 7.96575L8.68317 11.4338C8.56627 11.5507 8.44937 11.7066 8.44937 11.9014L8.33247 12.8366C8.33247 12.9535 8.13763 12.9925 8.09867 12.8366L7.63106 11.1221C7.51416 10.9272 7.5921 10.6934 7.78694 10.6155Z" fill="white"/>
</svg>
