<svg width="20" height="20" viewBox="0 0 20 20" fill="none" xmlns="http://www.w3.org/2000/svg">
<circle cx="10" cy="10" r="10" fill="#7C509A"/>
<path d="M13.125 5.27296C11.2193 4.90901 9.24019 4.90901 7.33443 5.27296C6.4915 5.45493 5.42868 6.47397 5.24543 7.27464C4.91559 8.83959 4.91559 10.4409 5.24543 12.0059C5.46532 12.8066 6.52815 13.8256 7.33443 14.0076C7.37108 14.0076 7.40773 14.044 7.40773 14.0804V16.3732C7.40773 16.4824 7.55433 16.5552 7.62763 16.446L8.72711 15.3178C8.72711 15.3178 9.60669 14.4079 9.75328 14.2623C9.75328 14.2623 9.78993 14.2259 9.82658 14.2259C10.9261 14.2623 12.0622 14.1532 13.1617 13.9712C14.0046 13.7892 15.0674 12.7702 15.2507 11.9695C15.5805 10.4045 15.5805 8.8032 15.2507 7.23825C15.0308 6.47397 13.9679 5.45493 13.125 5.27296ZM13.1617 12.1151C12.9784 12.479 12.7585 12.7702 12.392 12.9521C12.2821 12.9885 12.1721 13.0249 12.0622 13.0613C11.9156 13.0249 11.8056 12.9885 11.6957 12.9521C10.5229 12.479 9.42344 11.8239 8.54386 10.8777C8.06742 10.3318 7.66428 9.71305 7.33443 9.05796C7.18784 8.73041 7.04124 8.43926 6.93129 8.11171C6.82135 7.82055 7.00459 7.5294 7.18784 7.31103C7.37108 7.09267 7.59098 6.94709 7.84752 6.83791C8.03077 6.72873 8.21402 6.80152 8.36061 6.94709C8.65381 7.31103 8.947 7.67498 9.16689 8.07531C9.31349 8.33007 9.27684 8.62123 9.0203 8.8032C8.947 8.83959 8.91035 8.87599 8.83705 8.94878C8.8004 8.98517 8.7271 9.02156 8.69045 9.09435C8.61716 9.20354 8.61716 9.31272 8.65381 9.4219C8.947 10.259 9.49674 10.9141 10.3397 11.278C10.4863 11.3508 10.5962 11.3872 10.7795 11.3872C11.036 11.3508 11.146 11.0596 11.3292 10.9141C11.5124 10.7685 11.7323 10.7685 11.9522 10.8777C12.1355 10.9869 12.3187 11.1324 12.5386 11.278C12.7219 11.4236 12.9051 11.5328 13.0884 11.6783C13.1983 11.7511 13.235 11.9331 13.1617 12.1151ZM11.6224 9.38551C11.5491 9.38551 11.5857 9.38551 11.6224 9.38551C11.4758 9.38551 11.4391 9.31272 11.4025 9.20354C11.4025 9.13075 11.4025 9.02156 11.3658 8.94878C11.3292 8.8032 11.2559 8.65762 11.1093 8.54844C11.036 8.51204 10.9627 8.47565 10.8894 8.43926C10.7795 8.40286 10.7062 8.40286 10.5962 8.40286C10.4863 8.36647 10.4496 8.29368 10.4496 8.1845C10.4496 8.11171 10.5596 8.03892 10.6329 8.03892C11.2193 8.07531 11.659 8.40286 11.7323 9.09435C11.7323 9.13075 11.7323 9.20354 11.7323 9.23993C11.7323 9.31272 11.6957 9.38551 11.6224 9.38551ZM11.2559 7.78416C11.0727 7.71137 10.8894 7.63858 10.6695 7.60219C10.5962 7.60219 10.4863 7.56579 10.413 7.56579C10.303 7.56579 10.2297 7.49301 10.2664 7.38382C10.2664 7.27464 10.3397 7.20185 10.4496 7.23825C10.8161 7.27464 11.146 7.34743 11.4758 7.49301C12.1355 7.82055 12.502 8.36647 12.6119 9.09435C12.6119 9.13075 12.6119 9.16714 12.6119 9.20354C12.6119 9.27632 12.6119 9.34911 12.6119 9.45829C12.6119 9.49469 12.6119 9.53108 12.6119 9.56748C12.5753 9.71306 12.3187 9.74945 12.2821 9.56748C12.2821 9.53108 12.2454 9.4583 12.2454 9.4219C12.2454 9.09435 12.1721 8.7668 12.0255 8.47565C11.8056 8.1481 11.5491 7.92974 11.2559 7.78416ZM13.235 9.96781C13.125 9.96781 13.0517 9.85863 13.0517 9.74945C13.0517 9.53108 13.0151 9.31272 12.9784 9.09435C12.8318 7.92974 11.8789 6.98349 10.7428 6.80151C10.5596 6.76512 10.3763 6.76512 10.2297 6.72873C10.1198 6.72873 9.97318 6.72873 9.93653 6.58315C9.89988 6.47397 10.0098 6.36478 10.1198 6.36478C10.1564 6.36478 10.1931 6.36478 10.1931 6.36478C11.6957 6.40118 10.2664 6.36478 10.1931 6.36478C11.7323 6.40118 13.0151 7.42022 13.2716 8.94878C13.3083 9.20354 13.3449 9.4583 13.3449 9.74945C13.4182 9.85863 13.3449 9.96781 13.235 9.96781Z" fill="white"/>
</svg>
