<svg width="20" height="20" viewBox="0 0 20 20" fill="none" xmlns="http://www.w3.org/2000/svg">
<circle cx="10" cy="10" r="10" fill="#48C95F"/>
<path d="M13.4087 5.97577C12.4209 4.9914 11.1038 4.44452 9.71361 4.44452C6.82336 4.44452 4.4819 6.77786 4.4819 9.65806C4.4819 10.5695 4.738 11.481 5.17702 12.2466L4.44531 14.9445L7.2258 14.2154C7.99409 14.6164 8.83556 14.8351 9.71361 14.8351C12.6038 14.8351 14.9453 12.5018 14.9453 9.62161C14.9087 8.27265 14.3965 6.96015 13.4087 5.97577ZM12.238 11.5174C12.1282 11.8091 11.616 12.1008 11.3599 12.1372C11.1404 12.1737 10.8478 12.1737 10.5551 12.1008C10.3721 12.0279 10.116 11.9549 9.82336 11.8091C8.50629 11.2622 7.66483 9.94973 7.59166 9.84036C7.51848 9.76744 7.04287 9.14765 7.04287 8.4914C7.04287 7.83515 7.37214 7.54348 7.4819 7.39765C7.59165 7.25181 7.738 7.25181 7.84775 7.25181C7.92092 7.25181 8.03068 7.25181 8.10385 7.25181C8.17702 7.25181 8.28678 7.21536 8.39653 7.47056C8.50629 7.72577 8.76239 8.38202 8.79897 8.41848C8.83556 8.4914 8.83556 8.56431 8.79897 8.63723C8.76239 8.71015 8.7258 8.78306 8.65263 8.85598C8.57946 8.9289 8.50629 9.03827 8.4697 9.07473C8.39653 9.14765 8.32336 9.22056 8.39653 9.32994C8.4697 9.47577 8.7258 9.87681 9.12824 10.2414C9.64044 10.6789 10.0429 10.8247 10.1892 10.8976C10.3356 10.9706 10.4087 10.9341 10.4819 10.8612C10.5551 10.7883 10.8112 10.4966 10.8843 10.3508C10.9575 10.2049 11.0673 10.2414 11.177 10.2779C11.2868 10.3143 11.9453 10.6424 12.0551 10.7154C12.2014 10.7883 12.2746 10.8247 12.3112 10.8612C12.3478 10.9706 12.3478 11.2258 12.238 11.5174Z" fill="white"/>
</svg>
