<svg width="21" height="21" fill="none" xmlns="http://www.w3.org/2000/svg"><path d="M19.754 10.447l-8.55-9.085c-.36-.384-1.05-.384-1.41 0l-8.55 9.085a.87.87 0 00-.161.978.95.95 0 00.867.538h1.9v6.36c0 .24.1.472.278.642.178.17.42.266.672.266h2.85a.972.972 0 00.67-.266.889.889 0 00.28-.642v-3.634h3.799v3.634c0 .24.1.472.278.642.178.17.42.266.672.266h2.85a.972.972 0 00.671-.266.89.89 0 00.278-.642v-6.36h1.9a.98.98 0 00.519-.145.92.92 0 00.351-.393.87.87 0 00-.164-.978v0z" stroke="#0094F7" stroke-width="2" stroke-linecap="round" stroke-linejoin="round"/></svg>