<svg width="25" height="25" fill="none" xmlns="http://www.w3.org/2000/svg"><path d="M17.31 13.97l5.4 2.455A3.906 3.906 0 0125 19.98v1.113A3.906 3.906 0 0121.094 25H3.906A3.906 3.906 0 010 21.094V19.98c0-1.532.895-2.922 2.29-3.556l5.4-2.455a7.813 7.813 0 119.618 0zm-7.996.978l-6.378 2.9a2.344 2.344 0 00-1.373 2.133v1.113a2.344 2.344 0 002.343 2.343h17.188a2.344 2.344 0 002.343-2.343V19.98c0-.92-.537-1.753-1.373-2.134l-6.379-2.899a7.786 7.786 0 01-3.185.677 7.786 7.786 0 01-3.186-.677zm3.186-.886a6.25 6.25 0 100-12.5 6.25 6.25 0 000 12.5z" fill="#fff"/></svg>