<svg width="30" height="30" fill="none" xmlns="http://www.w3.org/2000/svg"><path d="M20.77 12.692c0-2.223-.791-4.125-2.372-5.706-1.58-1.58-3.482-2.37-5.706-2.37-2.223 0-4.125.79-5.706 2.37-1.58 1.58-2.37 3.483-2.37 5.706 0 2.224.79 4.126 2.37 5.706 1.58 1.581 3.483 2.371 5.706 2.371 2.224 0 4.126-.79 5.706-2.37 1.581-1.581 2.371-3.483 2.371-5.707zm9.23 15c0 .625-.228 1.166-.685 1.623-.457.457-.998.685-1.623.685-.649 0-1.19-.228-1.622-.685l-6.184-6.166c-2.152 1.49-4.55 2.236-7.194 2.236a12.47 12.47 0 01-4.93-1.001c-1.57-.667-2.921-1.569-4.057-2.704C2.569 20.544 1.668 19.192 1 17.623c-.666-1.568-1-3.212-1-4.93 0-1.72.334-3.363 1-4.932.668-1.568 1.57-2.92 2.705-4.056C4.84 2.569 6.193 1.668 7.76 1c1.57-.666 3.214-1 4.932-1 1.72 0 3.363.334 4.931 1 1.569.668 2.92 1.57 4.057 2.705 1.136 1.136 2.037 2.488 2.704 4.056.667 1.569 1 3.213 1 4.931 0 2.644-.745 5.042-2.235 7.194l6.184 6.184c.445.444.667.985.667 1.622z" fill="#fff"/></svg>