<svg width="19" height="19" fill="none" xmlns="http://www.w3.org/2000/svg"><path d="M13.154 8.038c0-1.408-.5-2.612-1.502-3.613-1-1.001-2.205-1.502-3.614-1.502-1.408 0-2.612.5-3.613 1.502-1.001 1-1.502 2.205-1.502 3.613 0 1.409.5 2.613 1.502 3.614 1 1.001 2.205 1.502 3.613 1.502 1.409 0 2.613-.5 3.614-1.502 1.001-1 1.502-2.205 1.502-3.614zm5.846 9.5c0 .396-.145.739-.434 1.028-.29.29-.632.434-1.027.434-.412 0-.754-.145-1.028-.434l-3.917-3.905a7.82 7.82 0 01-4.556 1.416 7.898 7.898 0 01-3.122-.634 8.039 8.039 0 01-2.57-1.713 8.039 8.039 0 01-1.712-2.569A7.899 7.899 0 010 8.038c0-1.088.211-2.13.634-3.122a8.037 8.037 0 011.712-2.57A8.037 8.037 0 014.916.634 7.899 7.899 0 018.038 0c1.089 0 2.13.211 3.123.634.994.422 1.85.993 2.57 1.712a8.038 8.038 0 011.712 2.57c.423.993.634 2.034.634 3.122a7.82 7.82 0 01-1.416 4.556l3.917 3.917A1.4 1.4 0 0119 17.538z" fill="#0094F7"/></svg>