<svg width="21" height="19" fill="none" xmlns="http://www.w3.org/2000/svg"><path opacity=".7" d="M6.998 6.111l-6.283.697a.6.6 0 00-.502.409.59.59 0 00.167.621 4596.36 4596.36 0 004.674 4.257c-.003 0-.77 3.712-1.281 6.19a.592.592 0 00.875.637c2.2-1.25 5.494-3.13 5.494-3.13s3.295 1.88 5.49 3.13a.6.6 0 00.646-.034.597.597 0 00.232-.603c-.51-2.478-1.277-6.19-1.277-6.19l4.674-4.253a.604.604 0 00.167-.625.595.595 0 00-.501-.407c-2.514-.281-6.284-.699-6.284-.699L10.685.351a.595.595 0 00-1.084 0L6.998 6.11z" fill="#CACACA"/></svg>