<svg width="20" height="20" fill="none" xmlns="http://www.w3.org/2000/svg"><circle cx="10" cy="10" r="10" fill="#48C95F"/><path d="M13.409 5.976a5.214 5.214 0 00-3.695-1.531c-2.89 0-5.232 2.333-5.232 5.213 0 .912.256 1.823.695 2.589l-.732 2.697 2.78-.729a5.35 5.35 0 002.489.62c2.89 0 5.231-2.333 5.231-5.213-.036-1.35-.549-2.662-1.536-3.646zm-1.171 5.541c-.11.292-.622.584-.878.62a2.05 2.05 0 01-.805-.036c-.183-.073-.439-.146-.732-.292-1.317-.547-2.158-1.86-2.231-1.969-.074-.073-.55-.692-.55-1.349 0-.656.33-.948.44-1.093.11-.146.256-.146.366-.146h.256c.073 0 .183-.037.293.219.11.255.365.911.402.947a.232.232 0 010 .22.762.762 0 01-.146.218c-.074.073-.147.182-.183.219-.073.073-.147.146-.073.255.073.146.329.547.731.911.512.438.915.584 1.061.657.147.073.22.036.293-.037.073-.073.33-.364.402-.51.073-.146.183-.11.293-.073.11.036.768.364.878.437.146.073.22.11.256.146.037.11.037.365-.073.656z" fill="#fff"/></svg>