<svg width="42" height="42" viewBox="0 0 42 42" fill="none" xmlns="http://www.w3.org/2000/svg">
<path d="M21 41C32.0457 41 41 32.0457 41 21C41 9.9543 32.0457 1 21 1C9.9543 1 1 9.9543 1 21C1 32.0457 9.9543 41 21 41Z" fill="white" stroke="white" stroke-width="0.076223" stroke-miterlimit="22.9256"/>
<path fill-rule="evenodd" clip-rule="evenodd" d="M17.4388 12.5262V16.9674H13V22.36H17.4388V36H22.7959V22.36H27.2347C27.2347 20.6328 27.8467 18.6755 27.8467 16.9674H22.7959C22.7959 10.6436 22.3854 11.099 28 11.099V6.18244C25.0238 6.18244 21.8242 5.15823 19.1571 7.9633C18.2234 8.94514 17.4388 10.6306 17.4388 12.5265V12.5262Z" fill="#269CEA"/>
</svg>
