<svg width="20" height="24" viewBox="0 0 20 24" fill="none" xmlns="http://www.w3.org/2000/svg">
<path d="M9.99958 0C4.48572 0 0 4.14925 0 9.2494C0 12.8937 1.64966 16.58 4.77066 19.9099C7.10173 22.397 9.41188 23.8061 9.50918 23.8649C9.6581 23.955 9.8289 24 9.9997 24C10.1704 24 10.3412 23.955 10.4902 23.8649C10.5874 23.8061 12.8979 22.397 15.229 19.91C18.3502 16.58 20 12.8937 20 9.2494C19.9999 4.14925 15.5137 0 9.99958 0ZM9.99958 22.1529C8.16047 20.8854 1.79285 16.0074 1.79285 9.2494C1.79285 5.06356 5.4743 1.65815 9.99958 1.65815C14.5252 1.65815 18.207 5.06356 18.207 9.2494C18.207 16.0074 11.8388 20.8854 9.99958 22.1529Z" fill="white"/>
<path d="M10.0041 5.57812C7.81558 5.57812 6.03516 7.22489 6.03516 9.24917C6.03516 11.2729 7.81558 12.9193 10.0041 12.9193C12.1925 12.9193 13.9728 11.2729 13.9728 9.24917C13.9728 7.225 12.1924 5.57812 10.0041 5.57812ZM10.0041 11.2612C8.80416 11.2612 7.82801 10.3586 7.82801 9.24917C7.82801 8.1392 8.80416 7.23628 10.0041 7.23628C11.2038 7.23628 12.18 8.1392 12.18 9.24917C12.18 10.3586 11.2038 11.2612 10.0041 11.2612Z" fill="white"/>
</svg>
