<svg width="42" height="42" viewBox="0 0 42 42" fill="none" xmlns="http://www.w3.org/2000/svg">
<path d="M21 41C32.0457 41 41 32.0457 41 21C41 9.9543 32.0457 1 21 1C9.9543 1 1 9.9543 1 21C1 32.0457 9.9543 41 21 41Z" fill="white" stroke="white" stroke-width="0.076223" stroke-miterlimit="22.9256"/>
<path fill-rule="evenodd" clip-rule="evenodd" d="M11.105 22.8924C11.105 10.8491 11.258 12.3009 25.2357 12.3009C26.6985 12.3009 28.2115 12.8024 28.9714 13.964C30.3364 16.0513 29.8956 21.7148 29.8956 24.8316C29.8956 29.057 28.6106 30.7985 24.3339 30.7985C13.1635 30.7985 11.105 32.0081 11.105 22.8924ZM9.00032 17.9694V25.13C9.00032 34.6094 16.785 32.5654 20.1928 32.978C20.8764 33.0609 23.6325 32.8823 24.7867 32.8889C29.1402 32.914 32 30.5406 32 25.7268V17.0748C32 8.84462 23.8412 10.0637 17.8693 10.0637C12.4998 10.0637 9 11.3979 9 17.9701L9.00032 17.9694Z" fill="#269CEA"/>
<path fill-rule="evenodd" clip-rule="evenodd" d="M20.1246 17.8205H20.8762C25.3363 17.8205 25.546 25.2791 20.5755 25.2791C17.2556 25.2791 15.6496 21.642 17.6247 19.069C18.0617 18.4998 19.1712 17.8205 20.1243 17.8205H20.1246ZM14.5625 21.4004C14.5625 24.6638 17.2857 27.3673 20.1246 27.3673C21.9286 27.3673 23.336 27.0975 24.7513 25.6933C26.9392 23.5219 27.0808 19.7208 24.7501 17.4072C24.161 16.8226 23.8773 16.6206 23.0862 16.2239C19.0511 14.2026 14.5628 17.443 14.5628 21.4001L14.5625 21.4004Z" fill="#269CEA"/>
<path fill-rule="evenodd" clip-rule="evenodd" d="M25.2344 15.434C25.2344 17.2564 28.0904 17.2564 28.0904 15.434C28.0904 13.6878 25.2344 13.5682 25.2344 15.434Z" fill="#269CEA"/>
</svg>
