<svg width="20" height="15" viewBox="0 0 20 15" fill="none" xmlns="http://www.w3.org/2000/svg">
<path d="M16.4765 2.91552L9.99993 9.20712L3.5219 2.91543C3.26396 2.66492 2.87078 2.69245 2.64362 2.97662C2.41654 3.26089 2.44126 3.69433 2.6992 3.94484L9.58866 10.6361C9.70623 10.7503 9.85316 10.8073 10 10.8073C10.1469 10.8073 10.2939 10.7503 10.4114 10.636L17.2995 3.94475C17.5573 3.69433 17.5821 3.26079 17.3549 2.97653C17.1276 2.69254 16.7345 2.6651 16.4765 2.91552Z" fill="white"/>
<path d="M18.1333 0H1.86675C0.837464 0 0 0.923129 0 2.0579V12.9421C0 14.0769 0.837464 15 1.86675 15H18.1333C19.1625 15 20 14.0769 20 12.9421V2.0579C20 0.92322 19.1625 0 18.1333 0ZM18.7555 12.9421C18.7555 13.3203 18.4764 13.6281 18.1333 13.6281H1.86675C1.5236 13.6281 1.2445 13.3203 1.2445 12.9421V2.0579C1.2445 1.67971 1.5236 1.37193 1.86675 1.37193H18.1333C18.4764 1.37193 18.7555 1.67971 18.7555 2.0579V12.9421Z" fill="white"/>
</svg>
