<svg width="42" height="42" viewBox="0 0 42 42" fill="none" xmlns="http://www.w3.org/2000/svg">
<path d="M21 41C32.0457 41 41 32.0457 41 21C41 9.9543 32.0457 1 21 1C9.95431 1 1 9.9543 1 21C1 32.0457 9.95431 41 21 41Z" fill="white" stroke="white" stroke-width="0.076223" stroke-miterlimit="22.9256"/>
<path fill-rule="evenodd" clip-rule="evenodd" d="M14 23.6908C14 25.0449 14.149 25.3244 15.6659 26.0973C16.3339 26.4378 17.4587 27.0075 18.2856 27.0781C18.1384 27.6475 17.6997 27.9043 17.3217 28.2931L15.1767 30.5004C13.423 32.2563 15.0914 34.0001 16.1431 34.0001C17.2754 34.0001 18.05 32.8443 18.6787 32.1962C19.2866 31.5695 20.4381 30.5218 20.8573 29.8765C22.7585 31.1891 24.7661 35.4447 26.9023 33.4574C28.6887 31.795 26.4323 30.1008 25.7502 29.3975C25.1423 28.7708 23.9908 27.7231 23.5716 27.0778C24.2567 27.062 28 25.9402 28 24.1323C28 22.8185 27.2503 22.0703 25.9999 22.0703C25.1489 22.0703 22.2765 24.7915 17.8743 22.9365C17.1792 22.6434 16.5815 22.0703 15.7143 22.0703C14.9444 22.0703 14 22.8634 14 23.6902V23.6908Z" fill="#269CEA"/>
<path fill-rule="evenodd" clip-rule="evenodd" d="M21.0025 18.0946C17.5066 18.0946 17.9149 12.94 20.574 12.94H21.431C23.2292 12.94 24.2851 15.9667 22.7427 17.3849C22.3508 17.7455 21.7141 18.0946 21.0025 18.0946ZM14.7168 15.1491C14.7168 21.2579 21.26 24.2093 25.4676 19.8995C30.1372 15.1166 24.933 6.92536 18.6503 9.48394C16.5384 10.3442 14.7168 12.7789 14.7168 15.1491Z" fill="#269CEA"/>
</svg>
