<svg width="16" height="16" viewBox="0 0 16 16" fill="none" xmlns="http://www.w3.org/2000/svg">
<path d="M13.8438 2.09608C12.4533 0.744311 10.6044 -7.56049e-05 8.63803 5.75951e-09C8.31579 5.75951e-09 8.05469 0.2539 8.05469 0.56708C8.05469 0.880259 8.31587 1.13416 8.63803 1.13416C10.2928 1.13408 11.8486 1.76052 13.0188 2.89808C14.1891 4.03564 14.8335 5.54816 14.8334 7.15692C14.8334 7.4701 15.0945 7.724 15.4167 7.724C15.7389 7.724 16.0001 7.4701 16.0001 7.157C16.0002 5.24518 15.2344 3.44784 13.8438 2.09608Z" fill="white"/>
<path d="M11.4442 7.15696C11.4442 7.47014 11.7054 7.72404 12.0276 7.72396C12.3498 7.72396 12.6109 7.47006 12.6109 7.15689C12.6107 5.02769 10.8285 3.29522 8.6381 3.29492C8.63803 3.29492 8.6381 3.29492 8.63803 3.29492C8.31587 3.29492 8.05477 3.54875 8.05469 3.86193C8.05469 4.17511 8.31579 4.42901 8.63795 4.42908C10.1852 4.42931 11.444 5.65299 11.4442 7.15696Z" fill="white"/>
<path d="M10.1541 10.0484C9.2649 10.0037 8.81192 10.6465 8.59468 10.9553C8.41276 11.2138 8.4809 11.5667 8.74682 11.7436C9.01274 11.9204 9.37574 11.8542 9.55766 11.5957C9.81433 11.2308 9.93061 11.1735 10.0883 11.1807C10.5932 11.2384 12.5816 12.6549 12.7807 13.0978C12.8307 13.2282 12.8288 13.3561 12.7752 13.5116C12.5664 14.114 12.2209 14.5372 11.7757 14.7356C11.3527 14.9241 10.8342 14.907 10.2764 14.6864C8.19374 13.8612 6.37419 12.7096 4.86839 11.2634C4.86777 11.2628 4.86715 11.2623 4.8666 11.2617C3.38212 9.79931 2.19966 8.03274 1.35218 6.01122C1.12514 5.46856 1.10757 4.96439 1.30147 4.55329C1.50556 4.1205 1.94096 3.78456 2.56 3.58185C2.72054 3.52952 2.85183 3.52786 2.98475 3.57595C3.44201 3.77019 4.89904 5.7031 4.95784 6.18837C4.96624 6.34746 4.90674 6.46042 4.53177 6.70948C4.26576 6.88611 4.1974 7.23898 4.37917 7.49757C4.56086 7.75616 4.92377 7.82254 5.18985 7.64592C5.50766 7.43496 6.16877 6.99582 6.12288 6.12849C6.07233 5.22252 4.25946 2.82332 3.39324 2.5137C3.00801 2.37412 2.60278 2.3717 2.18838 2.50689C1.25597 2.81213 0.582561 3.35638 0.240958 4.08073C-0.0903787 4.78345 -0.0798786 5.59876 0.27168 6.43895C1.17866 8.60232 2.44761 10.4952 4.04324 12.0653C4.04713 12.0691 4.0511 12.0729 4.05514 12.0766C5.66904 13.6249 7.61398 14.8562 9.83642 15.7369C10.2815 15.9128 10.7198 16.0009 11.1389 16.0009C11.5335 16.0009 11.9114 15.9229 12.2619 15.7666C13.0071 15.4346 13.5668 14.7801 13.8811 13.8731C14.0198 13.471 14.0176 13.0772 13.8751 12.7044C13.5555 11.8601 11.0875 10.0977 10.1541 10.0484Z" fill="white"/>
</svg>
