<svg width="42" height="42" viewBox="0 0 42 42" fill="none" xmlns="http://www.w3.org/2000/svg">
<path d="M21 41C32.0457 41 41 32.0457 41 21C41 9.95431 32.0457 1 21 1C9.9543 1 1 9.95431 1 21C1 32.0457 9.9543 41 21 41Z" fill="white" stroke="white" stroke-width="0.076223" stroke-miterlimit="22.9256"/>
<path fill-rule="evenodd" clip-rule="evenodd" d="M33 13.603C32.335 13.6594 31.5568 14.182 30.4852 14.2064C31.2746 13.5068 32.1294 12.7118 32.4085 11.4916C31.8238 11.6302 31.2155 12.0252 30.506 12.2673C29.0706 12.7571 29.309 12.7406 28.7116 12.2549C25.3915 9.55467 21.1139 11.5566 20.3105 14.9935C20.0143 16.2607 20.1845 16.3784 20.2782 17.5247C18.3782 17.0735 16.5479 17.1928 14.0898 15.6896C10.5447 13.5214 10.4131 12.5309 9.62707 11.944C8.65189 13.8228 8.66838 15.8505 9.89031 17.7087C10.0727 17.9863 10.1694 18.1643 10.4006 18.3949C10.7728 18.7668 10.825 18.6414 11.1063 19.0329L8.88743 18.4295C8.88743 20.5793 10.2245 22.6111 12.0551 23.3442L12.7872 23.6536C12.8078 23.6644 12.8519 23.6872 12.8815 23.7082H10.6626C11.1751 24.6958 11.4514 25.5315 12.3488 26.2123C13.2157 26.8703 13.9379 27.3281 15.3963 27.3281C14.924 28.0471 13.3367 28.7136 12.3479 29.0464C10.8067 29.5652 9.97432 29.5905 8 29.5905C8.73061 30.2381 10.4821 30.9887 11.382 31.2705C14.4283 32.2248 17.0218 32.2267 20.1011 31.3707C21.4042 31.0084 22.656 30.443 23.6823 29.7435C28.1829 26.6752 30.6333 22.205 30.6333 16.1668C31.3281 15.6925 32.7772 14.4542 33 13.6026V13.603Z" fill="#269CEA"/>
<path fill-rule="evenodd" clip-rule="evenodd" d="M20.2422 13.6028H20.3903L20.2671 13.4268L20.2422 13.6028Z" fill="white"/>
</svg>
