<svg width="42" height="42" viewBox="0 0 42 42" fill="none" xmlns="http://www.w3.org/2000/svg">
<path d="M21 41C32.0457 41 41 32.0457 41 21C41 9.9543 32.0457 1 21 1C9.9543 1 1 9.9543 1 21C1 32.0457 9.9543 41 21 41Z" fill="white" stroke="white" stroke-width="0.076223" stroke-miterlimit="22.9256"/>
<path fill-rule="evenodd" clip-rule="evenodd" d="M15.9058 14.2032C16.604 14.534 17.7333 14.3698 17.7333 16.6088C17.7333 18.2848 18.0371 20.5659 16.9718 21.2703C15.5002 20.9318 13.4453 17.0279 12.7949 15.4692C11.8773 13.2695 11.8475 13.7518 7.22364 13.7518C5.10684 13.7518 6.19744 15.1131 7.07338 17.058C8.50103 20.2275 11.8968 25.7884 14.7512 27.8231C17.6696 29.9036 19.2279 29.841 22.4552 29.841C24.2718 29.841 23.1142 26.9735 24.3589 26.142C25.249 25.5477 26.3723 27.1212 26.683 27.4714C27.9098 28.8548 29.2221 30.2098 31.2633 29.9729C33.1145 29.7581 39.1961 30.8933 33.8418 25.667C32.582 24.4372 31.1371 23.5804 31.1371 22.4731C31.1371 21.1472 38.7239 13.7521 34.9449 13.7521C26.8064 13.7521 30.0535 13.1569 27.2434 17.7272C26.5683 18.825 25.405 20.9771 24.1305 21.2703C23.3225 20.0788 23.5215 19.9653 23.5215 17.9622C23.5215 13.4067 24.8014 13 18.7996 13C17.527 13 16.4495 13.1882 15.9058 14.2032Z" fill="#269CEA"/>
</svg>
