<svg width="42" height="42" fill="none" xmlns="http://www.w3.org/2000/svg"><path d="M21 41c11.046 0 20-8.954 20-20S32.046 1 21 1 1 9.954 1 21s8.954 20 20 20z" fill="#fff" stroke="#fff" stroke-width=".076" stroke-miterlimit="22.926"/><path fill-rule="evenodd" clip-rule="evenodd" d="M11.105 22.892c0-12.043.153-10.591 14.13-10.591 1.463 0 2.977.501 3.736 1.663 1.365 2.087.925 7.75.925 10.868 0 4.225-1.285 5.966-5.562 5.966-11.17 0-13.229 1.21-13.229-7.906zM9 17.97v7.161c0 9.48 7.785 7.435 11.193 7.848.683.083 3.44-.096 4.594-.09C29.14 32.915 32 30.542 32 25.728v-8.652c0-8.23-8.159-7.011-14.13-7.011-5.37 0-8.87 1.334-8.87 7.906z" fill="#269CEA"/><path fill-rule="evenodd" clip-rule="evenodd" d="M20.125 17.82h.751c4.46 0 4.67 7.46-.3 7.46-3.32 0-4.926-3.638-2.951-6.211.437-.57 1.546-1.248 2.5-1.248zm-5.563 3.58c0 3.264 2.724 5.967 5.563 5.967 1.804 0 3.211-.27 4.626-1.674 2.188-2.171 2.33-5.972 0-8.286-.59-.584-.874-.786-1.665-1.183-4.035-2.021-8.523 1.219-8.523 5.176zm10.672-5.966c0 1.822 2.856 1.822 2.856 0 0-1.746-2.856-1.866-2.856 0z" fill="#269CEA"/></svg>