<svg width="25" height="21" fill="none" xmlns="http://www.w3.org/2000/svg"><path fill-rule="evenodd" clip-rule="evenodd" d="M25 2.603c-.665.056-1.443.579-2.515.603.79-.7 1.644-1.494 1.924-2.714-.585.138-1.194.533-1.903.775-1.435.49-1.197.474-1.794-.012-3.32-2.7-7.598-.698-8.402 2.739-.296 1.267-.126 1.384-.032 2.53-1.9-.45-3.73-.331-6.188-1.834C2.545 2.52 2.413 1.53 1.627.944.652 2.823.668 4.85 1.89 6.709c.183.277.28.455.51.686.373.372.425.246.706.638L.887 7.43c0 2.15 1.338 4.181 3.168 4.914l.732.31c.02.01.065.033.095.054h-2.22c.513.988.79 1.823 1.687 2.504.867.658 1.589 1.116 3.047 1.116-.472.72-2.06 1.386-3.048 1.718-1.541.52-2.374.544-4.348.544.73.648 2.482 1.399 3.382 1.68 3.046.955 5.64.957 8.72.1 1.302-.362 2.554-.927 3.58-1.627 4.5-3.068 6.951-7.538 6.951-13.576.695-.475 2.144-1.713 2.367-2.564z" fill="#fff"/></svg>