<svg width="30" height="17" fill="none" xmlns="http://www.w3.org/2000/svg"><path fill-rule="evenodd" clip-rule="evenodd" d="M9.906 1.203c.698.331 1.827.167 1.827 2.406 0 1.676.304 3.957-.761 4.661-1.472-.338-3.527-4.242-4.177-5.8C5.877.27 5.847.751 1.224.751c-2.117 0-1.027 1.361-.15 3.306 1.427 3.17 4.823 8.73 7.677 10.765 2.919 2.08 4.477 2.018 7.704 2.018 1.817 0 .66-2.868 1.904-3.699.89-.594 2.013.98 2.324 1.33 1.227 1.383 2.54 2.738 4.58 2.5 1.851-.214 7.933.921 2.579-4.305-1.26-1.23-2.705-2.087-2.705-3.194 0-1.326 7.587-8.72 3.808-8.72-8.139 0-4.892-.596-7.702 3.974-.675 1.098-1.838 3.25-3.112 3.543-.808-1.191-.61-1.305-.61-3.308C17.521.407 18.802 0 12.8 0c-1.273 0-2.35.188-2.894 1.203z" fill="#fff"/></svg>