<svg width="42" height="35" fill="none" xmlns="http://www.w3.org/2000/svg"><path d="M12.862 0L0 33.985.767 34 11.333 6.16l3.523 9.29H9.23c-.101.264-.179.463-.257.67h6.155L21.89 34h5.025L13.975 0h-1.113zm16.386 15.909h-4.345L24.902.774c.695-.006.922 0 1.49 0h1.726c.818 0 1.643.057 2.477.219a5.38 5.38 0 012.267 1.02c.677.519 1.228 1.288 1.653 2.308.425 1.02.638 2.373.638 4.057 0 1.49-.142 2.72-.425 3.692-.284.972-.685 1.742-1.205 2.308a4.183 4.183 0 01-1.865 1.19c-.725.228-1.528.34-2.409.34zm9.446 16.276a8.378 8.378 0 002.409-3.134c.535-1.215.802-2.55.802-4.008 0-1.393-.3-2.624-.897-3.693a8.653 8.653 0 00-2.338-2.696 11.401 11.401 0 00-3.211-1.7 14.526 14.526 0 00-3.471-.754v-.097a11.687 11.687 0 003.164-.826 9.585 9.585 0 002.668-1.652 7.866 7.866 0 001.842-2.38 6.504 6.504 0 00.685-2.964c0-.778-.158-1.644-.472-2.6-.315-.955-.898-1.846-1.748-2.672-.85-.826-2.015-1.522-3.495-2.089C33.152.354 31.233 0 28.935 0H20.18l-.01 6.353 4.737 12.821-.002-2.585H30.1c2.109 0 3.698.745 4.77 2.235 1.07 1.49 1.605 3.53 1.605 6.121 0 1.815-.158 3.32-.472 4.52-.695 2.501-2.569 5.054-5.225 5.535 0 0 1.688-.099 3.855-.75 1.64-.493 2.991-1.19 4.062-2.065z" fill="#fff"/></svg>