<svg width="23" height="24" fill="none" xmlns="http://www.w3.org/2000/svg"><path fill-rule="evenodd" clip-rule="evenodd" d="M2.105 13.576c0-12.043.153-10.591 14.13-10.591 1.463 0 2.977.501 3.736 1.663 1.365 2.087.925 7.75.925 10.867 0 4.226-1.285 5.967-5.562 5.967-11.17 0-13.229 1.21-13.229-7.906zM0 8.653v7.16c0 9.48 7.785 7.436 11.193 7.849.683.082 3.44-.096 4.594-.09C20.14 23.599 23 21.225 23 16.41V7.758C23-.472 14.841.748 8.87.748 3.5.747 0 2.08 0 8.653v-.001z" fill="#fff"/><path fill-rule="evenodd" clip-rule="evenodd" d="M11.125 8.501h.751c4.46 0 4.67 7.459-.3 7.459-3.32 0-4.926-3.637-2.951-6.21.437-.57 1.546-1.249 2.5-1.249zm-5.563 3.58c0 3.263 2.724 5.967 5.563 5.967 1.803 0 3.211-.27 4.626-1.674 2.188-2.171 2.33-5.973-.001-8.286-.59-.585-.873-.787-1.664-1.183-4.035-2.022-8.523 1.219-8.523 5.176zm10.672-5.964c0 1.822 2.856 1.822 2.856 0 0-1.747-2.856-1.866-2.856 0z" fill="#fff"/></svg>