<svg width="14" height="26" fill="none" xmlns="http://www.w3.org/2000/svg"><path fill-rule="evenodd" clip-rule="evenodd" d="M0 15.374c0 1.354.149 1.634 1.666 2.407.668.34 1.793.91 2.62.98-.148.57-.586.827-.964 1.216l-2.145 2.207c-1.754 1.756-.086 3.5.966 3.5 1.132 0 1.907-1.156 2.536-1.804.608-.627 1.76-1.675 2.178-2.32 1.901 1.313 3.91 5.568 6.045 3.58 1.787-1.661-.47-3.356-1.152-4.059-.608-.627-1.76-1.674-2.178-2.32.685-.015 4.428-1.137 4.428-2.945 0-1.314-.75-2.062-2-2.062-.851 0-3.724 2.721-8.126.866-.695-.293-1.292-.866-2.16-.866-.77 0-1.714.793-1.714 1.62z" fill="#fff"/><path fill-rule="evenodd" clip-rule="evenodd" d="M7.002 9.778c-3.496 0-3.088-5.154-.429-5.154h.857c1.798 0 2.854 3.026 1.312 4.445-.392.36-1.029.71-1.74.71zM.716 6.833c0 6.109 6.543 9.06 10.75 4.75C16.137 6.8 10.933-1.39 4.65 1.168 2.537 2.028.716 4.463.716 6.833z" fill="#fff"/></svg>